<?xml version="1.0" encoding="UTF-8" standalone="no"?>
<!-- Generator: Adobe Illustrator 16.0.0, SVG Export Plug-In . SVG Version: 6.00 Build 0)  -->

<svg
   xmlns:dc="http://purl.org/dc/elements/1.1/"
   xmlns:cc="http://creativecommons.org/ns#"
   xmlns:rdf="http://www.w3.org/1999/02/22-rdf-syntax-ns#"
   xmlns:svg="http://www.w3.org/2000/svg"
   xmlns="http://www.w3.org/2000/svg"
   xmlns:sodipodi="http://sodipodi.sourceforge.net/DTD/sodipodi-0.dtd"
   xmlns:inkscape="http://www.inkscape.org/namespaces/inkscape"
   version="1.1"
   id="Capa_1"
   x="0px"
   y="0px"
   width="57.835px"
   height="65.908px"
   viewBox="0 0 57.835 65.908"
   enable-background="new 0 0 57.835 65.908"
   xml:space="preserve"
   inkscape:version="0.48.4 r9939"
   sodipodi:docname="logo.svg"><metadata
     id="metadata11"><rdf:RDF><cc:Work
         rdf:about=""><dc:format>image/svg+xml</dc:format><dc:type
           rdf:resource="http://purl.org/dc/dcmitype/StillImage" /><dc:title /></cc:Work></rdf:RDF></metadata><defs
     id="defs9" /><sodipodi:namedview
     pagecolor="#ffffff"
     bordercolor="#666666"
     borderopacity="1"
     objecttolerance="10"
     gridtolerance="10"
     guidetolerance="10"
     inkscape:pageopacity="0"
     inkscape:pageshadow="2"
     inkscape:window-width="1920"
     inkscape:window-height="1056"
     id="namedview7"
     showgrid="false"
     inkscape:zoom="8"
     inkscape:cx="12.856388"
     inkscape:cy="16.772454"
     inkscape:window-x="0"
     inkscape:window-y="24"
     inkscape:window-maximized="1"
     inkscape:current-layer="g3764" /><g
     id="g3"
     inkscape:export-xdpi="136.5542"
     inkscape:export-ydpi="136.5542"
     inkscape:export-filename="/home/ivan/Downloads/image4120.png"><path
       id="path3290"
       d="M3.516,21.21c-0.125-1.375,0.889-2.591,2.264-2.716l34.724-3.156   c1.375-0.125,2.593,0.889,2.718,2.264l2.81,30.917c0.125,1.375-0.889,2.592-2.264,2.717L9.042,54.39   c-1.375,0.125-2.591-0.889-2.716-2.264L3.516,21.21z M6.818,65.897l41.211-3.748c1.375-0.125,2.389-1.34,2.264-2.715l-4.092-45.02   c-0.125-1.375-1.342-2.389-2.717-2.264L2.273,15.897c-1.375,0.125-2.388,1.341-2.263,2.716l4.091,45.02   C4.226,65.009,5.443,66.022,6.818,65.897"
       style="fill:#6db33f;fill-opacity:1"
       fill="#040606" /><path
       id="path3292"
       d="M 55.796,7.706 15.131,0.043 c -1.357,-0.255 -2.664,0.638 -2.92,1.994 L 9.720449,12.664813 13.108902,12.468271 14.875,5.494 C 15.13,4.138 16.437,3.245 17.795,3.5 L 52.06,9.956 c 1.355,0.256 2.249,1.562 1.994,2.92 l -3.131,16.611 c -0.256,1.357 -0.362,3.571 -0.237,4.946 l 0.627,6.889 c 0.125,1.375 0.435,1.39 0.688,0.033 L 57.79,10.626 C 58.046,9.269 57.155,7.962 55.796,7.706"
       style="fill:#6db33f;fill-opacity:1"
       inkscape:connector-curvature="0"
       sodipodi:nodetypes="ccccccccccccccc" /></g><g
     id="g3764"
     transform="matrix(0.9793817,0,0,0.9793817,-10.936384,1.2680999)"><path
       style="fill:#6cb23e"
       d="M 27.485826,50.262116 C 25.4409,49.024217 18.861325,38.132064 18.498785,37.335665 c -0.36254,-0.796399 -0.533004,-1.757704 -0.276889,-2.498427 0.256115,-0.740723 1.532114,-3.64789 3.253525,-7.380365 3.362263,-7.290276 3.73676,-7.430907 4.774716,-8.216757 1.037956,-0.78585 5.76741,-0.905241 8.479832,-1.076711 2.712422,-0.17147 7.29009,-0.799254 8.538145,-0.408577 1.430827,0.524554 1.551596,0.667787 6.125959,7.265373 2.341982,3.377832 4.277951,6.191181 4.482874,6.705151 0.204923,0.51397 0.442191,1.535789 0.20465,2.344817 -0.237541,0.809028 -1.532113,3.64789 -3.253525,7.380366 -3.362263,7.290275 -3.197778,7.343157 -4.774716,8.216756 -1.576938,0.873599 -5.110515,0.724671 -9.358236,1.080121 -3.503409,0.119807 -7.164368,0.752603 -9.209294,-0.485296 z m 11.737658,-6.957969 c 1.139312,-0.38347 2.630261,-1.295653 3.586689,-2.194384 3.231468,-3.036529 4.046279,-7.901793 1.994729,-11.910582 -0.711678,-1.390638 -1.921113,-2.779032 -3.144445,-3.609723 -0.588699,-0.399749 -0.825391,-0.486193 -1.233682,-0.450559 -0.712225,0.06216 -1.19946,0.646084 -1.13693,1.36254 0.04134,0.473691 0.132052,0.585753 1.194257,1.475392 1.736159,1.454102 2.658129,3.147192 2.83837,5.212337 0.296109,3.392725 -1.813617,6.608656 -5.02968,7.666923 -1.2216,0.401975 -2.989445,0.452886 -4.155332,0.119667 -3.04173,-0.869351 -5.113953,-3.396421 -5.397955,-6.58279 -0.184215,-2.066796 0.356053,-3.706214 1.790868,-5.43431 0.525683,-0.633136 0.978119,-1.290558 1.005414,-1.460939 0.129572,-0.80883 -0.537191,-1.535951 -1.343889,-1.465544 -0.421766,0.03681 -0.624717,0.161625 -1.215881,0.747766 -1.363553,1.351964 -2.385372,3.373689 -2.742074,5.425337 -0.246134,1.415702 -0.05885,3.561587 0.428817,4.913245 1.384848,3.838386 4.806629,6.434859 8.843203,6.710285 0.972494,0.06636 2.675786,-0.174032 3.717521,-0.524661 z m -2.289466,-8.351649 c 0.605694,-0.508174 0.609976,-0.646318 0.17464,-5.634265 -0.444646,-5.094616 -0.47667,-5.238765 -1.245626,-5.606906 -0.730738,-0.349845 -1.624938,-0.01906 -1.925769,0.712396 -0.236166,0.574223 0.550815,9.620765 0.882529,10.14482 0.313366,0.495085 0.740026,0.703253 1.334955,0.651329 0.282734,-0.02468 0.633406,-0.144995 0.779271,-0.267374 z"
       id="path3766"
       inkscape:connector-curvature="0"
       sodipodi:nodetypes="zzzszzcszzszczsssssssssssssssssssssssccs" /></g></svg>